{
    "asset" : {
        "generator" : "Khronos glTF Blender I/O v1.6.16",
        "version" : "2.0"
    },
    "scene" : 0,
    "scenes" : [
        {
            "name" : "Scene",
            "nodes" : [
                0
            ]
        }
    ],
    "nodes" : [
        {
            "mesh" : 0,
            "name" : "hamburger.2"
        }
    ],
    "materials" : [
        {
            "doubleSided" : true,
            "name" : "Material_0.006",
            "normalTexture" : {
                "index" : 0
            },
            "occlusionTexture" : {
                "index" : 1
            },
            "pbrMetallicRoughness" : {
                "baseColorTexture" : {
                    "index" : 2
                },
                "metallicFactor" : 0,
                "roughnessFactor" : 0.5
            }
        }
    ],
    "meshes" : [
        {
            "name" : "Mesh_0.006",
            "primitives" : [
                {
                    "attributes" : {
                        "POSITION" : 0,
                        "NORMAL" : 1,
                        "TEXCOORD_0" : 2
                    },
                    "indices" : 3,
                    "material" : 0
                }
            ]
        }
    ],
    "textures" : [
        {
            "sampler" : 0,
            "source" : 0
        },
        {
            "sampler" : 0,
            "source" : 1
        },
        {
            "sampler" : 0,
            "source" : 2
        }
    ],
    "images" : [
        {
            "mimeType" : "image/png",
            "name" : "Image_2",
            "uri" : "textures/Image_2.png"
        },
        {
            "mimeType" : "image/png",
            "name" : "Image_3",
            "uri" : "textures/Image_3.png"
        },
        {
            "mimeType" : "image/png",
            "name" : "Image_0",
            "uri" : "textures/Image_0.png"
        }
    ],
    "accessors" : [
        {
            "bufferView" : 0,
            "componentType" : 5126,
            "count" : 1011,
            "max" : [
                7.907153606414795,
                1.9660329818725586,
                7.966863632202148
            ],
            "min" : [
                -7.703342914581299,
                -2.0547986030578613,
                -7.760184288024902
            ],
            "type" : "VEC3"
        },
        {
            "bufferView" : 1,
            "componentType" : 5126,
            "count" : 1011,
            "type" : "VEC3"
        },
        {
            "bufferView" : 2,
            "componentType" : 5126,
            "count" : 1011,
            "type" : "VEC2"
        },
        {
            "bufferView" : 3,
            "componentType" : 5123,
            "count" : 5520,
            "type" : "SCALAR"
        }
    ],
    "bufferViews" : [
        {
            "buffer" : 0,
            "byteLength" : 12132,
            "byteOffset" : 0
        },
        {
            "buffer" : 0,
            "byteLength" : 12132,
            "byteOffset" : 12132
        },
        {
            "buffer" : 0,
            "byteLength" : 8088,
            "byteOffset" : 24264
        },
        {
            "buffer" : 0,
            "byteLength" : 11040,
            "byteOffset" : 32352
        }
    ],
    "samplers" : [
        {
            "magFilter" : 9729,
            "minFilter" : 9987
        }
    ],
    "buffers" : [
        {
            "byteLength" : 43392,
            "uri" : "patty.bin"
        }
    ]
}
