{
    "asset" : {
        "generator" : "Khronos glTF Blender I/O v1.6.16",
        "version" : "2.0"
    },
    "scene" : 0,
    "scenes" : [
        {
            "name" : "Scene",
            "nodes" : [
                0
            ]
        }
    ],
    "nodes" : [
        {
            "mesh" : 0,
            "name" : "hamburger.2"
        }
    ],
    "materials" : [
        {
            "doubleSided" : true,
            "name" : "Material_0",
            "normalTexture" : {
                "index" : 0
            },
            "occlusionTexture" : {
                "index" : 1
            },
            "pbrMetallicRoughness" : {
                "baseColorTexture" : {
                    "index" : 2
                },
                "metallicFactor" : 0,
                "roughnessFactor" : 0.5
            }
        }
    ],
    "meshes" : [
        {
            "name" : "Mesh_0",
            "primitives" : [
                {
                    "attributes" : {
                        "POSITION" : 0,
                        "NORMAL" : 1,
                        "TEXCOORD_0" : 2
                    },
                    "indices" : 3,
                    "material" : 0
                }
            ]
        }
    ],
    "textures" : [
        {
            "sampler" : 0,
            "source" : 0
        },
        {
            "sampler" : 0,
            "source" : 1
        },
        {
            "sampler" : 0,
            "source" : 2
        }
    ],
    "images" : [
        {
            "mimeType" : "image/png",
            "name" : "Image_2",
            "uri" : "textures/Image_2.png"
        },
        {
            "mimeType" : "image/png",
            "name" : "Image_3",
            "uri" : "textures/Image_3.png"
        },
        {
            "mimeType" : "image/png",
            "name" : "Image_0",
            "uri" : "textures/Image_0.png"
        }
    ],
    "accessors" : [
        {
            "bufferView" : 0,
            "componentType" : 5126,
            "count" : 2406,
            "max" : [
                2.6988160610198975,
                0.8223495483398438,
                6.394977569580078
            ],
            "min" : [
                -2.69100284576416,
                -1.2242355346679688,
                -6.124925136566162
            ],
            "type" : "VEC3"
        },
        {
            "bufferView" : 1,
            "componentType" : 5126,
            "count" : 2406,
            "type" : "VEC3"
        },
        {
            "bufferView" : 2,
            "componentType" : 5126,
            "count" : 2406,
            "type" : "VEC2"
        },
        {
            "bufferView" : 3,
            "componentType" : 5123,
            "count" : 7272,
            "type" : "SCALAR"
        }
    ],
    "bufferViews" : [
        {
            "buffer" : 0,
            "byteLength" : 28872,
            "byteOffset" : 0
        },
        {
            "buffer" : 0,
            "byteLength" : 28872,
            "byteOffset" : 28872
        },
        {
            "buffer" : 0,
            "byteLength" : 19248,
            "byteOffset" : 57744
        },
        {
            "buffer" : 0,
            "byteLength" : 14544,
            "byteOffset" : 76992
        }
    ],
    "samplers" : [
        {
            "magFilter" : 9729,
            "minFilter" : 9987
        }
    ],
    "buffers" : [
        {
            "byteLength" : 91536,
            "uri" : "pickles.bin"
        }
    ]
}
