{
    "asset" : {
        "generator" : "Khronos glTF Blender I/O v1.6.16",
        "version" : "2.0"
    },
    "scene" : 0,
    "scenes" : [
        {
            "name" : "Scene",
            "nodes" : [
                0
            ]
        }
    ],
    "nodes" : [
        {
            "mesh" : 0,
            "name" : "hamburger.2"
        }
    ],
    "materials" : [
        {
            "doubleSided" : true,
            "name" : "Material_0.001",
            "normalTexture" : {
                "index" : 0
            },
            "occlusionTexture" : {
                "index" : 1
            },
            "pbrMetallicRoughness" : {
                "baseColorTexture" : {
                    "index" : 2
                },
                "metallicFactor" : 0,
                "roughnessFactor" : 0.5
            }
        }
    ],
    "meshes" : [
        {
            "name" : "Mesh_0.001",
            "primitives" : [
                {
                    "attributes" : {
                        "POSITION" : 0,
                        "NORMAL" : 1,
                        "TEXCOORD_0" : 2
                    },
                    "indices" : 3,
                    "material" : 0
                }
            ]
        }
    ],
    "textures" : [
        {
            "sampler" : 0,
            "source" : 0
        },
        {
            "sampler" : 0,
            "source" : 1
        },
        {
            "sampler" : 0,
            "source" : 2
        }
    ],
    "images" : [
        {
            "mimeType" : "image/png",
            "name" : "Image_2",
            "uri" : "textures/Image_2.png"
        },
        {
            "mimeType" : "image/png",
            "name" : "Image_3",
            "uri" : "textures/Image_3.png"
        },
        {
            "mimeType" : "image/png",
            "name" : "Image_0",
            "uri" : "textures/Image_0.png"
        }
    ],
    "accessors" : [
        {
            "bufferView" : 0,
            "componentType" : 5126,
            "count" : 2116,
            "max" : [
                6.464858531951904,
                1.2261009216308594,
                4.8388190269470215
            ],
            "min" : [
                -6.452136993408203,
                -1.1375350952148438,
                -4.84507942199707
            ],
            "type" : "VEC3"
        },
        {
            "bufferView" : 1,
            "componentType" : 5126,
            "count" : 2116,
            "type" : "VEC3"
        },
        {
            "bufferView" : 2,
            "componentType" : 5126,
            "count" : 2116,
            "type" : "VEC2"
        },
        {
            "bufferView" : 3,
            "componentType" : 5123,
            "count" : 12024,
            "type" : "SCALAR"
        }
    ],
    "bufferViews" : [
        {
            "buffer" : 0,
            "byteLength" : 25392,
            "byteOffset" : 0
        },
        {
            "buffer" : 0,
            "byteLength" : 25392,
            "byteOffset" : 25392
        },
        {
            "buffer" : 0,
            "byteLength" : 16928,
            "byteOffset" : 50784
        },
        {
            "buffer" : 0,
            "byteLength" : 24048,
            "byteOffset" : 67712
        }
    ],
    "samplers" : [
        {
            "magFilter" : 9729,
            "minFilter" : 9987
        }
    ],
    "buffers" : [
        {
            "byteLength" : 91760,
            "uri" : "tomatoes.bin"
        }
    ]
}
